HIERARCHY
ROOT Hips
{
  OFFSET 0 0 0
  CHANNELS 6 Xposition Yposition Zposition Zrotation Yrotation Xrotation
  JOINT LeftThigh
  {
    OFFSET 8.409438 0 -5.917753
    CHANNELS 3 Zrotation Yrotation Xrotation
    JOINT LeftLeg
    {
      OFFSET 0 0 -42.358652
      CHANNELS 3 Zrotation Yrotation Xrotation
      JOINT LeftFoot
      {
        OFFSET 0 0 -39.357303
        CHANNELS 3 Zrotation Yrotation Xrotation
      }
    }
  }
  JOINT RightThigh
  {
    OFFSET -8.409438 0 -5.917753
    CHANNELS 3 Zrotation Yrotation Xrotation
    JOINT RightLeg
    {
      OFFSET 0 0 -42.358652
      CHANNELS 3 Zrotation Yrotation Xrotation
      JOINT RightFoot
      {
        OFFSET 0 0 -39.357303
        CHANNELS 3 Zrotation Yrotation Xrotation
      }
    }
  }
  JOINT SpineLow
  {
    OFFSET 0 0 4.719101
    CHANNELS 3 Zrotation Yrotation Xrotation
    JOINT SpineMid
    {
      OFFSET 0 0 12.899191
      CHANNELS 3 Zrotation Yrotation Xrotation
      JOINT Chest
      {
        OFFSET 0 0 12.899191
        CHANNELS 3 Zrotation Yrotation Xrotation
        JOINT LeftShoulder
        {
          OFFSET 7.550562 1.41573 9.438202
          CHANNELS 3 Zrotation Yrotation Xrotation
          JOINT LeftArm
          {
            OFFSET 9.155056 0 4.247191
            CHANNELS 3 Zrotation Yrotation Xrotation
            JOINT LeftForearm
            {
              OFFSET 0 0 25.771955
              CHANNELS 3 Zrotation Yrotation Xrotation
              JOINT LeftHand
              {
                OFFSET 0 0 25.197169
                CHANNELS 3 Zrotation Yrotation Xrotation
              }
            }
          }
        }
        JOINT RightShoulder
        {
          OFFSET -7.550562 1.41573 9.438202
          CHANNELS 3 Zrotation Yrotation Xrotation
          JOINT RightArm
          {
            OFFSET -9.155056 0 4.247191
            CHANNELS 3 Zrotation Yrotation Xrotation
            JOINT RightForearm
            {
              OFFSET 0 0 -25.771955
              CHANNELS 3 Zrotation Yrotation Xrotation
              JOINT RightHand
              {
                OFFSET 0 0 -25.197169
                CHANNELS 3 Zrotation Yrotation Xrotation
              }
            }
          }
        }
        JOINT Neck
        {
          OFFSET 0 0 15.101124
          CHANNELS 3 Zrotation Yrotation Xrotation
          JOINT Head
          {
            OFFSET 0 0 11.325843
            CHANNELS 3 Zrotation Yrotation Xrotation
            End Site
            {
              OFFSET 0 0 14.157303
            }
          }
        }
      }
    }
  }
}
MOTION
Frames: 10
Frame Time: 0.0
0.0  89.887642  0.0  18.98812  -23.0403  -122.477397  57.528842  -3.455013  -70.21179  -8.317258  34.537596  103.681773  3.450347  0.859  0.28451  -11.342229  14.585469  12.063112  6.847644  2.619399  16.515873  5.723686  2.58771  1.789103  2.700261  1.567108  2.806851  7.559776  3.957468  7.844986  7.559776  3.957468  7.844986  -2.192961  17.270034  8.985899  -173.002756  51.962379  -149.563388  -35.517804  -5.339318  70.038045  65.539042  -3.911912  19.407941  5.397302  -3.182768  13.048582  72.146636  45.616773  -3.659275  -11.758458  23.265186  -51.195892  84.527357  3.822687  -7.329653  -3.56741  1.100979  3.698923  -2.682256  0.80421  2.780646  
0.0  89.887642  0.0  18.45539  -22.62715  -122.116919  57.380003  -3.574451  -69.910374  -8.174174  34.747009  103.438801  3.452178  0.920868  0.254194  -11.80429  14.304381  12.034829  6.862143  2.420535  16.390344  5.570477  2.584046  1.834931  2.711094  1.55911  2.840654  7.590227  3.930433  7.936947  7.590226  3.930433  7.936947  -2.093152  17.258312  9.108845  -172.373137  51.794461  -149.013942  -34.691386  -5.800713  70.465618  65.93642  -3.36753  19.952691  5.489532  -2.987813  12.981039  72.135719  45.995024  -3.446655  -12.226738  22.896496  -51.425173  84.685798  4.088237  -8.337302  -3.884562  1.00446  3.506203  -2.919224  0.731123  2.636096  
0.0  89.887642  0.0  17.950836  -22.179372  -121.673958  57.215816  -3.419197  -69.548381  -8.150842  34.704945  103.284513  3.44896  0.969936  0.216241  -12.180918  13.864483  11.973931  6.623139  2.363962  16.194861  5.49253  2.60456  1.909978  2.766094  1.532046  2.900496  7.740207  3.842898  8.100043  7.740208  3.842899  8.100043  -2.108412  17.327181  9.116043  -172.286728  51.711179  -148.542305  -34.092328  -6.468445  70.842374  66.452296  -2.682796  20.490012  5.409176  -2.755823  12.840224  71.851889  46.417913  -3.371828  -12.717489  22.376752  -51.627708  84.831585  4.21853  -9.202667  -4.304293  0.984813  3.22731  -3.233448  0.715946  2.427503  
0.0  89.887642  0.0  17.304369  -21.735057  -121.159592  57.032308  -3.265408  -69.194844  -8.161426  34.530086  103.132116  3.53949  1.016705  0.197724  -12.55849  13.223386  11.85989  6.35084  2.400311  16.123271  5.641431  2.552676  1.944518  2.757507  1.488634  2.902264  7.711136  3.725498  8.098927  7.711135  3.725498  8.098928  -1.889374  17.385268  9.269354  -172.179046  51.750537  -148.304698  -33.691919  -7.056036  71.204699  67.154102  -1.876761  21.033112  5.609394  -2.544625  12.902514  71.728062  46.746605  -3.163653  -13.287192  21.744243  -51.923832  84.784366  4.180181  -9.991412  -4.610915  0.981089  3.090938  -3.463169  0.712566  2.325706  
0.0  89.887642  0.0  16.57829  -21.207895  -120.486852  56.833279  -3.049621  -68.759203  -8.232792  34.125873  102.930716  3.572555  1.060514  0.102896  -12.918925  12.427039  11.77919  5.716724  2.339918  15.944708  5.924077  2.683442  2.050373  2.798967  1.424001  2.930478  7.817279  3.54091  8.169919  7.817278  3.54091  8.169919  -1.918618  17.473338  9.196765  -172.381653  51.856715  -148.078585  -33.367148  -7.635758  71.584275  68.142192  -0.970834  21.649288  5.390482  -2.427249  12.842244  71.672763  47.088229  -2.878915  -13.987665  21.07115  -52.199848  84.782947  3.884492  -10.687723  -5.0907  1.014595  2.85502  -3.822764  0.737244  2.149838  
0.0  89.887642  0.0  15.874487  -20.860266  -119.869303  56.934719  -2.930904  -68.193752  -8.410058  33.582864  102.638724  3.560006  1.102646  -0.055555  -13.544488  11.59086  11.436843  5.649536  2.531653  15.997059  5.899581  2.706959  2.106679  2.844592  1.358443  2.901386  7.931856  3.360167  8.084289  7.931856  3.360167  8.084288  -1.880542  17.486416  9.317585  -172.478812  51.971744  -147.928977  -33.072486  -8.288097  71.964057  69.401704  0.083413  22.33856  5.337744  -2.297048  13.120478  71.297144  47.374846  -2.884644  -14.676829  20.291795  -52.572612  84.948483  3.298483  -11.107691  -5.587171  1.001528  2.799504  -4.194963  0.725642  2.10894  
0.0  89.887642  0.0  15.186003  -20.588583  -119.130649  57.135591  -2.797132  -67.613903  -8.498735  32.9785  102.327674  3.581569  1.144168  -0.151488  -14.288613  10.664864  10.942683  5.495861  2.75296  15.95689  5.955656  2.714867  2.123929  2.965525  1.298627  2.873616  8.253043  3.18579  8.006142  8.253043  3.18579  8.006142  -2.1323  17.346296  9.365165  -172.459662  51.996371  -147.619487  -32.63425  -8.980517  72.512102  70.928972  1.395033  23.197573  5.035655  -2.400779  13.457815  71.443788  47.42909  -2.86234  -15.800546  20.12515  -52.612119  85.09825  2.514248  -11.319355  -6.180059  0.928308  2.738432  -4.639213  0.668636  2.063416  
0.0  89.887642  0.0  14.569399  -20.396028  -118.393553  57.427706  -2.774203  -66.950686  -8.370611  32.521195  102.027143  3.642231  1.198367  -0.144437  -14.828696  9.701947  10.437939  5.474873  2.982693  16.021568  6.071146  2.720347  2.202585  3.101019  1.271296  2.832523  8.617723  3.100156  7.896133  8.617722  3.100156  7.896132  -2.417274  17.005971  9.354004  -172.419012  52.033738  -147.22859  -32.145507  -9.888247  72.994693  72.736405  2.810394  24.376753  4.590615  -2.481937  13.673094  70.74858  47.65609  -3.206123  -16.568704  19.501438  -53.122264  85.122588  1.570615  -11.402569  -6.92812  0.708249  2.661843  -5.199225  0.501097  2.004692  
0.0  89.887642  0.0  13.96452  -20.198709  -117.466753  57.623338  -2.676984  -66.271558  -8.102292  32.225585  101.70433  3.78924  1.272769  -0.082425  -15.478505  8.729163  9.656656  5.765304  3.167912  16.19868  6.071012  2.74863  2.267308  3.27396  1.281088  2.77895  9.088918  3.113324  7.758668  9.088918  3.113324  7.758668  -2.916452  16.412074  9.191915  -172.359713  52.054159  -146.800603  -31.471267  -10.974033  73.533978  74.68565  4.171997  25.810465  4.030961  -2.838031  13.807502  70.348309  47.704452  -3.496208  -17.660241  19.1432  -53.559291  85.103508  0.499724  -11.324392  -7.652877  0.347466  2.576431  -5.741225  0.228381  1.937029  
0.0  89.887642  0.0  13.350903  -20.055881  -116.523039  57.730426  -2.620808  -65.446348  -7.792553  31.801576  101.356897  3.809147  1.323242  -0.063749  -15.736653  7.720897  8.999551  5.71265  3.241342  16.295695  5.983234  2.772286  2.312019  3.479448  1.306653  2.70537  9.65011  3.169283  7.570541  9.65011  3.169283  7.570541  -3.608057  15.646112  9.091695  -172.292305  52.095493  -146.425503  -30.717365  -12.278384  74.154269  76.532409  5.3531  27.467094  3.286369  -3.300099  13.892954  69.404521  47.85108  -3.930795  -18.560725  18.309082  -54.352423  85.059171  -0.681244  -11.077582  -8.622199  -0.125977  2.494035  -6.46626  -0.129706  1.869189  
